<?xml version="1.0" standalone="no"?>
 <!DOCTYPE svg PUBLIC "-//W3C//DTD SVG 1.1//EN" 
 "http://www.w3.org/Graphics/SVG/1.1/DTD/svg11.dtd"> 
<svg xmlns="http://www.w3.org/2000/svg" version="1.1" 
    width="5.78866cm" height="3.56362cm" viewBox="0 0 22790 14030 ">
<title>SVG Picture created as Tiny_Servo-B_Cu.svg date 2014/06/05 01:08:09 </title>
  <desc>Picture generated by PCBNEW </desc>
<g style="fill:#000000; fill-opacity:1;stroke:#000000; stroke-opacity:1;
stroke-linecap:round; stroke-linejoin:round; "
 transform="translate(0 0) scale(1 1)">
</g>
<g style="fill:#000000; fill-opacity:0.0; 
stroke:#000000; stroke-width:39.3701; stroke-opacity:1; 
stroke-linecap:round; stroke-linejoin:round;">
<path d="M21775 14010.3 A1000 1000 0.0 0 0 22775 13010.3 " />
<path d="M1775 13010.3 A1000 1000 0.0 0 0 2775 14010.3 " />
<path d="M2775 10.3146 A1000 1000 0.0 0 0 1775 1010.31 " />
<path d="M22775 1010.31 A1000 1000 0.0 0 0 21775 10.3146 " />
<path d="M21775 10
L2775 10
" />
<path d="M22775 13010
L22775 1010
" />
<path d="M2775 14010
L21775 14010
" />
<path d="M1775 1010
L1775 13010
" />
</g>
<g style="fill:#000000; fill-opacity:1.0; 
stroke:#000000; stroke-width:39.3701; stroke-opacity:1; 
stroke-linecap:round; stroke-linejoin:round;">
<polyline style="fill-rule:evenodd;"
points="11030,9979
10519,9979
10519,10290
11030,10290
11030,9979
" /> 
<polyline style="fill-rule:evenodd;"
points="11030,10729
10519,10729
10519,11040
11030,11040
11030,10729
" /> 
<polyline style="fill-rule:evenodd;"
points="9030,5979
8519,5979
8519,6290
9030,6290
9030,5979
" /> 
<polyline style="fill-rule:evenodd;"
points="9030,6729
8519,6729
8519,7040
9030,7040
9030,6729
" /> 
<polyline style="fill-rule:evenodd;"
points="21805,6765
21805,6254
21494,6254
21494,6765
21805,6765
" /> 
<polyline style="fill-rule:evenodd;"
points="21055,6765
21055,6254
20744,6254
20744,6765
21055,6765
" /> 
<polyline style="fill-rule:evenodd;"
points="21805,7765
21805,7254
21494,7254
21494,7765
21805,7765
" /> 
<polyline style="fill-rule:evenodd;"
points="21055,7765
21055,7254
20744,7254
20744,7765
21055,7765
" /> 
<polyline style="fill-rule:evenodd;"
points="15494,3790
16055,3790
16055,3229
15494,3229
15494,3790
" /> 
<circle cx="15775" cy="2510.31" r="280.315" /> 
<circle cx="15775" cy="1510.31" r="280.315" /> 
<polyline style="fill-rule:evenodd;"
points="14494,3790
15055,3790
15055,3229
14494,3229
14494,3790
" /> 
<circle cx="14775" cy="2510.31" r="280.315" /> 
<circle cx="14775" cy="1510.31" r="280.315" /> 
<polyline style="fill-rule:evenodd;"
points="12494,3790
13055,3790
13055,3229
12494,3229
12494,3790
" /> 
<circle cx="12775" cy="2510.31" r="280.315" /> 
<circle cx="12775" cy="1510.31" r="280.315" /> 
<polyline style="fill-rule:evenodd;"
points="17055,10229
16494,10229
16494,10790
17055,10790
17055,10229
" /> 
<circle cx="16775" cy="11510.3" r="280.315" /> 
<circle cx="16775" cy="12510.3" r="280.315" /> 
<polyline style="fill-rule:evenodd;"
points="11494,3790
12055,3790
12055,3229
11494,3229
11494,3790
" /> 
<circle cx="11775" cy="2510.31" r="280.315" /> 
<circle cx="11775" cy="1510.31" r="280.315" /> 
<polyline style="fill-rule:evenodd;"
points="15055,10229
14494,10229
14494,10790
15055,10790
15055,10229
" /> 
<circle cx="14775" cy="11510.3" r="280.315" /> 
<circle cx="14775" cy="12510.3" r="280.315" /> 
<polyline style="fill-rule:evenodd;"
points="14055,10229
13494,10229
13494,10790
14055,10790
14055,10229
" /> 
<circle cx="13775" cy="11510.3" r="280.315" /> 
<circle cx="13775" cy="12510.3" r="280.315" /> 
<polyline style="fill-rule:evenodd;"
points="13055,10229
12494,10229
12494,10790
13055,10790
13055,10229
" /> 
<circle cx="12775" cy="11510.3" r="280.315" /> 
<circle cx="12775" cy="12510.3" r="280.315" /> 
<circle cx="9775" cy="11010.3" r="310.315" /> 
<circle cx="8775" cy="11010.3" r="310.315" /> 
<circle cx="3275" cy="4010.31" r="925.315" /> 
<polyline style="fill-rule:evenodd;"
points="4749,3084
4749,4935
6600,4935
6600,3084
4749,3084
" /> 
<circle cx="4175" cy="2010.31" r="925.315" /> 
<polyline style="fill-rule:evenodd;"
points="10484,5079
10484,5940
11065,5940
11065,5079
10484,5079
" /> 
</g>
<g style="fill:#000000; fill-opacity:1.0; 
stroke:#000000; stroke-width:620; stroke-opacity:1; 
stroke-linecap:round; stroke-linejoin:round;">
<path d="M11775 5650
L11775 5370
" />
<path d="M12775 5650
L12775 5370
" />
<path d="M13775 5650
L13775 5370
" />
<path d="M14775 5650
L14775 5370
" />
<path d="M15775 5650
L15775 5370
" />
<path d="M16775 5650
L16775 5370
" />
<path d="M16775 8650
L16775 8370
" />
<path d="M15775 8650
L15775 8370
" />
<path d="M14775 8650
L14775 8370
" />
<path d="M13775 8650
L13775 8370
" />
<path d="M12775 8650
L12775 8370
" />
<path d="M11775 8650
L11775 8370
" />
<path d="M10775 8650
L10775 8370
" />
</g>
<g style="fill:#000000; fill-opacity:1.0; 
stroke:#000000; stroke-width:39.3701; stroke-opacity:1; 
stroke-linecap:round; stroke-linejoin:round;">
<polyline style="fill-rule:evenodd;"
points="9499,7371
10050,7371
10050,6898
9499,6898
9499,7371
" /> 
<polyline style="fill-rule:evenodd;"
points="9499,8121
10050,8121
10050,7648
9499,7648
9499,8121
" /> 
<polyline style="fill-rule:evenodd;"
points="7499,6371
8050,6371
8050,5898
7499,5898
7499,6371
" /> 
<polyline style="fill-rule:evenodd;"
points="7499,7121
8050,7121
8050,6648
7499,6648
7499,7121
" /> 
<polyline style="fill-rule:evenodd;"
points="4530,10765
4530,10254
4019,10254
4019,10765
4530,10765
" /> 
<circle cx="3275" cy="10510.3" r="255.315" /> 
<polyline style="fill-rule:evenodd;"
points="4580,7815
4580,7204
3969,7204
3969,7815
4580,7815
" /> 
<circle cx="3275" cy="7510.31" r="305.315" /> 
<polyline style="fill-rule:evenodd;"
points="18994,7790
19555,7790
19555,7229
18994,7229
18994,7790
" /> 
<circle cx="19275" cy="6510.31" r="280.315" /> 
<circle cx="19275" cy="5510.31" r="280.315" /> 
<circle cx="19275" cy="4510.31" r="280.315" /> 
</g>
<g style="fill:#000000; fill-opacity:1.0; 
stroke:#000000; stroke-width:157.48; stroke-opacity:1; 
stroke-linecap:round; stroke-linejoin:round;">
<path d="M19275 7510
L20900 7510
" />
<path d="M15775 8510
L15775 8010
" />
<path d="M16275 7510
L19275 7510
" />
<path d="M15775 8010
L16275 7510
" />
<path d="M19275 6510
L20900 6510
" />
<path d="M16775 5510
L16775 6010
" />
<path d="M17275 6510
L19275 6510
" />
<path d="M16775 6010
L17275 6510
" />
<path d="M11775 5510
L11775 3510
" />
<path d="M12775 5510
L12775 3510
" />
<path d="M14775 5510
L14775 3510
" />
<path d="M15775 5510
L15775 3510
" />
<path d="M16775 10510
L16775 8510
" />
<path d="M14775 10510
L14775 8510
" />
<path d="M13775 10510
L13775 8510
" />
<path d="M12775 10510
L12775 8510
" />
</g>
<g style="fill:#000000; fill-opacity:1.0; 
stroke:#000000; stroke-width:314.961; stroke-opacity:1; 
stroke-linecap:round; stroke-linejoin:round;">
<path d="M15775 1510
L18775 1510
" />
<path d="M19275 2010
L19275 4510
" />
<path d="M18775 1510
L19275 2010
" />
<path d="M9775 7885
L9775 8510
" />
<path d="M7775 6885
L7775 9010
" />
<path d="M8775 11010
L8775 8510
" />
<path d="M14775 12510
L16775 12510
" />
<path d="M13775 12510
L14775 12510
" />
<path d="M12775 12510
L13775 12510
" />
<path d="M3275 10510
L3275 12010
" />
<path d="M3775 12510
L12775 12510
" />
<path d="M3275 12010
L3775 12510
" />
<path d="M14775 1510
L15775 1510
" />
<path d="M12775 1510
L14775 1510
" />
<path d="M11775 1510
L12775 1510
" />
<path d="M4175 2010
L6775 2010
" />
<path d="M7275 1510
L11775 1510
" />
<path d="M6775 2010
L7275 1510
" />
<path d="M10775 8510
L9775 8510
" />
<path d="M9775 8510
L8775 8510
" />
<path d="M8775 8510
L8275 8510
" />
<path d="M3275 11010
L3275 10510
" />
<path d="M3775 11510
L3275 11010
" />
<path d="M5275 11510
L3775 11510
" />
<path d="M8275 8510
L7775 9010
" />
<path d="M7775 9010
L5275 11510
" />
<path d="M3275 4010
L3275 2910
" />
<path d="M3275 2910
L4175 2010
" />
<path d="M3275 7510
L3275 10510
" />
<path d="M3275 4010
L3275 7510
" />
</g>
<g style="fill:#000000; fill-opacity:1.0; 
stroke:#000000; stroke-width:157.48; stroke-opacity:1; 
stroke-linecap:round; stroke-linejoin:round;">
<path d="M11775 8510
L11775 9510
" />
<path d="M11150 10135
L10775 10135
" />
<path d="M11775 9510
L11150 10135
" />
</g>
<g style="fill:#000000; fill-opacity:1.0; 
stroke:#000000; stroke-width:100; stroke-opacity:1; 
stroke-linecap:round; stroke-linejoin:round;">
<path d="M8775 6885
L13400 6885
" />
<path d="M13775 6510
L13775 5510
" />
<path d="M13400 6885
L13775 6510
" />
<path d="M8775 6885
L9525 6885
" />
<path d="M9525 6885
L9775 7135
" />
<path d="M10775 10885
L9900 10885
" />
<path d="M9900 10885
L9775 11010
" />
</g>
<g style="fill:#000000; fill-opacity:1.0; 
stroke:#000000; stroke-width:314.961; stroke-opacity:1; 
stroke-linecap:round; stroke-linejoin:round;">
<path d="M19275 5510
L21275 5510
" />
<path d="M21650 5885
L21650 6510
" />
<path d="M21275 5510
L21650 5885
" />
<path d="M19275 5510
L18775 5510
" />
<path d="M17275 2510
L15775 2510
" />
<path d="M17775 3010
L17275 2510
" />
<path d="M17775 4510
L17775 3010
" />
<path d="M18775 5510
L17775 4510
" />
<path d="M13775 11510
L12775 11510
" />
<path d="M14775 11510
L13775 11510
" />
<path d="M16775 11510
L14775 11510
" />
<path d="M21650 7510
L21650 11135
" />
<path d="M21275 11510
L16775 11510
" />
<path d="M21650 11135
L21275 11510
" />
<path d="M21650 6510
L21650 7510
" />
<path d="M8775 6135
L8775 5510
" />
<path d="M7775 6135
L7775 5510
" />
<path d="M6775 6010
L5775 7010
" />
<path d="M5775 7010
L5775 10010
" />
<path d="M14775 2510
L15775 2510
" />
<path d="M12775 2510
L14775 2510
" />
<path d="M11775 2510
L12775 2510
" />
<path d="M7275 5510
L7275 3010
" />
<path d="M7775 2510
L11775 2510
" />
<path d="M7275 3010
L7775 2510
" />
<path d="M4275 10510
L5275 10510
" />
<path d="M5275 10510
L5775 10010
" />
<path d="M7275 5510
L7775 5510
" />
<path d="M7775 5510
L8775 5510
" />
<path d="M8775 5510
L10775 5510
" />
<path d="M6775 6010
L7275 5510
" />
<path d="M4275 7510
L4275 10510
" />
<path d="M5675 4010
L5675 6110
" />
<path d="M5675 6110
L4275 7510
" />
</g>
<g style="fill:#FFFFFF; fill-opacity:1.0; 
stroke:#FFFFFF; stroke-width:39.3701; stroke-opacity:1; 
stroke-linecap:round; stroke-linejoin:round;">
<circle cx="15775" cy="3510.31" r="180.315" /> 
<circle cx="15775" cy="2510.31" r="180.315" /> 
<circle cx="15775" cy="1510.31" r="180.315" /> 
<circle cx="14775" cy="3510.31" r="180.315" /> 
<circle cx="14775" cy="2510.31" r="180.315" /> 
<circle cx="14775" cy="1510.31" r="180.315" /> 
<circle cx="12775" cy="3510.31" r="180.315" /> 
<circle cx="12775" cy="2510.31" r="180.315" /> 
<circle cx="12775" cy="1510.31" r="180.315" /> 
<circle cx="16775" cy="10510.3" r="180.315" /> 
<circle cx="16775" cy="11510.3" r="180.315" /> 
<circle cx="16775" cy="12510.3" r="180.315" /> 
<circle cx="11775" cy="3510.31" r="180.315" /> 
<circle cx="11775" cy="2510.31" r="180.315" /> 
<circle cx="11775" cy="1510.31" r="180.315" /> 
<circle cx="14775" cy="10510.3" r="180.315" /> 
<circle cx="14775" cy="11510.3" r="180.315" /> 
<circle cx="14775" cy="12510.3" r="180.315" /> 
<circle cx="13775" cy="10510.3" r="180.315" /> 
<circle cx="13775" cy="11510.3" r="180.315" /> 
<circle cx="13775" cy="12510.3" r="180.315" /> 
<circle cx="12775" cy="10510.3" r="180.315" /> 
<circle cx="12775" cy="11510.3" r="180.315" /> 
<circle cx="12775" cy="12510.3" r="180.315" /> 
<circle cx="9775" cy="11010.3" r="140.315" /> 
<circle cx="8775" cy="11010.3" r="140.315" /> 
</g>
<g style="fill:#FFFFFF; fill-opacity:1.0; 
stroke:#FFFFFF; stroke-width:400; stroke-opacity:1; 
stroke-linecap:round; stroke-linejoin:round;">
<path d="M3275 4310
L3275 3710
" />
<path d="M5675 4310
L5675 3710
" />
<path d="M3875 2010
L4475 2010
" />
</g>
<g style="fill:#FFFFFF; fill-opacity:1.0; 
stroke:#FFFFFF; stroke-width:39.3701; stroke-opacity:1; 
stroke-linecap:round; stroke-linejoin:round;">
<circle cx="10775" cy="5510.31" r="140.315" /> 
<circle cx="11775" cy="5510.31" r="140.315" /> 
<circle cx="12775" cy="5510.31" r="140.315" /> 
<circle cx="13775" cy="5510.31" r="140.315" /> 
<circle cx="14775" cy="5510.31" r="140.315" /> 
<circle cx="15775" cy="5510.31" r="140.315" /> 
<circle cx="16775" cy="5510.31" r="140.315" /> 
<circle cx="16775" cy="8510.31" r="140.315" /> 
<circle cx="15775" cy="8510.31" r="140.315" /> 
<circle cx="14775" cy="8510.31" r="140.315" /> 
<circle cx="13775" cy="8510.31" r="140.315" /> 
<circle cx="12775" cy="8510.31" r="140.315" /> 
<circle cx="11775" cy="8510.31" r="140.315" /> 
<circle cx="10775" cy="8510.31" r="140.315" /> 
<circle cx="4275" cy="10510.3" r="140.315" /> 
<circle cx="3275" cy="10510.3" r="140.315" /> 
<circle cx="4275" cy="7510.31" r="140.315" /> 
<circle cx="3275" cy="7510.31" r="140.315" /> 
<circle cx="19275" cy="7510.31" r="180.315" /> 
<circle cx="19275" cy="6510.31" r="180.315" /> 
<circle cx="19275" cy="5510.31" r="180.315" /> 
<circle cx="19275" cy="4510.31" r="180.315" /> 
</g> 
</svg>
